<?xml version="1.0" encoding="UTF-8"?>
<svg width="700pt" fill="#008000" height="700pt" version="1.1" viewBox="0 0 600 600" xmlns="http://www.w3.org/2000/svg">
 <path d="m533.4 52.852h-366.8c-24.148 0-43.75 19.602-43.75 43.75v366.8c0 24.148 19.602 43.75 43.75 43.75h366.8c24.148 0 43.75-19.602 43.75-43.75v-119-247.8c0-24.148-19.602-43.75-43.75-43.75zm26.25 410.55c0 14.523-11.727 26.25-26.25 26.25l-366.8-0.003906c-14.523 0-26.25-11.727-26.25-26.25v-65.801l155.4-155.4c10.148-10.324 26.773-10.324 37.102 0 39.023 39.199 126 126 166.07 166.25l12.426-12.426-103.77-103.77 27.648-27.824c10.324-10.148 26.949-10.148 37.102 0l87.324 87.324v111.65zm-74.898-211.4c-16.977-16.977-44.801-16.977-61.773 0l-27.824 27.824-50.051-50.051c-16.977-16.977-44.801-16.977-61.773 0l-142.98 142.97v-276.15c0-14.523 11.727-26.25 26.25-26.25h366.8c14.523 0 26.25 11.727 26.25 26.25v230.3zm-259.7-154.7c-65.102 1.75-64.926 97.301 0 98.875 64.926-1.75 65.102-97.125 0-98.875zm0 81.375c-41.824-0.69922-42-63.176 0-63.875 42 1.2266 41.824 62.824 0 63.875z"/>
</svg>
